<svg width="282" height="30" viewBox="0 0 282 30" fill="none" xmlns="http://www.w3.org/2000/svg">
<path d="M0.87798 1.193C2.90598 1.037 4.97298 0.958998 7.07898 0.958998C9.21098 0.958998 11.044 1.479 12.578 2.519C14.138 3.559 14.918 5.067 14.918 7.043C14.918 8.525 14.502 9.903 13.67 11.177C12.864 12.451 11.889 13.413 10.745 14.063C12.591 14.635 14.138 15.623 15.386 17.027C16.634 18.431 17.258 20.004 17.258 21.746C17.258 24.19 16.478 26.049 14.918 27.323C13.384 28.597 11.265 29.234 8.56098 29.234C5.88298 29.234 3.32198 29.13 0.87798 28.922V1.193ZM8.79498 27.557C10.693 27.557 12.253 27.037 13.475 25.997C14.697 24.931 15.308 23.579 15.308 21.941C15.308 20.303 14.71 18.886 13.514 17.69C12.344 16.494 10.732 15.675 8.67798 15.233C7.71598 15.025 6.59798 14.921 5.32398 14.921C4.07598 14.921 3.21798 14.921 2.74998 14.921V27.362C3.89398 27.492 5.90898 27.557 8.79498 27.557ZM13.046 7.004C13.046 5.574 12.448 4.469 11.252 3.689C10.082 2.909 8.75598 2.519 7.27398 2.519C5.81798 2.519 4.30998 2.571 2.74998 2.675V13.322C3.08798 13.322 3.72498 13.322 4.66098 13.322C5.59698 13.322 6.97498 13.4 8.79498 13.556C9.96498 12.932 10.966 12.035 11.798 10.865C12.63 9.695 13.046 8.408 13.046 7.004ZM36.1303 29.39C32.5163 29.39 29.4873 28.129 27.0433 25.607C24.5993 23.085 23.3773 20.004 23.3773 16.364C23.3773 12.698 24.5993 9.604 27.0433 7.082C29.4873 4.56 32.5163 3.299 36.1303 3.299C39.7443 3.299 42.7733 4.56 45.2173 7.082C47.6613 9.604 48.8833 12.698 48.8833 16.364C48.8833 20.004 47.6613 23.085 45.2173 25.607C42.7733 28.129 39.7443 29.39 36.1303 29.39ZM36.1303 4.898C33.0103 4.898 30.4103 6.003 28.3303 8.213C26.2763 10.423 25.2493 13.14 25.2493 16.364C25.2493 19.562 26.2763 22.266 28.3303 24.476C30.4103 26.66 33.0103 27.752 36.1303 27.752C39.2763 27.752 41.8763 26.66 43.9303 24.476C45.9843 22.266 47.0113 19.562 47.0113 16.364C47.0113 13.14 45.9843 10.423 43.9303 8.213C41.8763 6.003 39.2763 4.898 36.1303 4.898ZM67.894 29.39C64.28 29.39 61.251 28.129 58.807 25.607C56.363 23.085 55.141 20.004 55.141 16.364C55.141 12.698 56.363 9.604 58.807 7.082C61.251 4.56 64.28 3.299 67.894 3.299C71.508 3.299 74.537 4.56 76.981 7.082C79.425 9.604 80.647 12.698 80.647 16.364C80.647 20.004 79.425 23.085 76.981 25.607C74.537 28.129 71.508 29.39 67.894 29.39ZM67.894 4.898C64.774 4.898 62.174 6.003 60.094 8.213C58.04 10.423 57.013 13.14 57.013 16.364C57.013 19.562 58.04 22.266 60.094 24.476C62.174 26.66 64.774 27.752 67.894 27.752C71.04 27.752 73.64 26.66 75.694 24.476C77.748 22.266 78.775 19.562 78.775 16.364C78.775 13.14 77.748 10.423 75.694 8.213C73.64 6.003 71.04 4.898 67.894 4.898ZM103.831 3.689L93.0277 15.896C97.2917 21.07 100.204 24.346 101.764 25.724C103.35 27.102 104.923 27.882 106.483 28.064L106.444 29.273C104.988 29.247 103.805 29.039 102.895 28.649C101.985 28.233 101.179 27.687 100.477 27.011C99.7747 26.335 98.2667 24.684 95.9527 22.058C93.6647 19.406 91.9487 17.378 90.8047 15.974L101.686 3.689H103.831ZM90.2587 3.689V29H88.4647V3.689H90.2587ZM130.224 2.753H120.786V1.115H141.534V2.753H132.096V29H130.224V2.753ZM146.165 29V3.806C148.401 3.624 150.299 3.533 151.859 3.533C154.251 3.533 156.227 4.157 157.787 5.405C159.347 6.627 160.127 8.382 160.127 10.67C160.127 12.204 159.685 13.621 158.801 14.921C157.917 16.221 156.916 17.274 155.798 18.08C158.892 22.188 160.803 24.645 161.531 25.451C163.013 26.985 164.625 27.856 166.367 28.064L166.328 29.273C164.872 29.247 163.689 29.039 162.779 28.649C161.869 28.233 160.959 27.544 160.049 26.582C159.165 25.62 157.202 23.033 154.16 18.821C152.054 18.821 149.987 18.756 147.959 18.626V29H146.165ZM153.185 17.339C154.199 17.339 155.291 16.663 156.461 15.311C157.631 13.959 158.216 12.386 158.216 10.592C158.216 8.798 157.605 7.433 156.383 6.497C155.161 5.561 153.575 5.093 151.625 5.093C150.585 5.093 149.363 5.145 147.959 5.249V17.144C149.831 17.274 151.573 17.339 153.185 17.339ZM172.093 20.225L168.466 29H166.633L177.241 3.533H178.294L188.98 29H186.991L183.325 20.225H172.093ZM177.67 6.419C177.28 7.589 176.929 8.564 176.617 9.344L172.717 18.704H182.701L178.84 9.383C178.242 7.927 177.852 6.939 177.67 6.419ZM213.353 27.752C211.403 28.844 208.686 29.39 205.202 29.39C201.744 29.39 198.689 28.142 196.037 25.646C193.411 23.15 192.098 20.056 192.098 16.364C192.098 12.646 193.242 9.539 195.53 7.043C197.844 4.547 200.821 3.299 204.461 3.299C207.399 3.299 210.272 3.754 213.08 4.664L212.612 6.146C209.908 5.314 207.113 4.898 204.227 4.898C201.341 4.898 198.91 6.003 196.934 8.213C194.984 10.397 194.009 13.088 194.009 16.286C194.009 19.458 195.14 22.162 197.402 24.398C199.69 26.634 202.329 27.752 205.319 27.752C208.309 27.752 210.792 27.336 212.768 26.504L213.353 27.752ZM235.113 3.689L224.31 15.896C228.574 21.07 231.486 24.346 233.046 25.724C234.632 27.102 236.205 27.882 237.765 28.064L237.726 29.273C236.27 29.247 235.087 29.039 234.177 28.649C233.267 28.233 232.461 27.687 231.759 27.011C231.057 26.335 229.549 24.684 227.235 22.058C224.947 19.406 223.231 17.378 222.087 15.974L232.968 3.689H235.113ZM221.541 3.689V29H219.747V3.689H221.541ZM241.837 29V3.689H253.654V5.249H243.631V14.453H252.679V15.974H243.631V27.362H254.044V29H241.837ZM261.222 29V3.806C263.458 3.624 265.356 3.533 266.916 3.533C269.308 3.533 271.284 4.157 272.844 5.405C274.404 6.627 275.184 8.382 275.184 10.67C275.184 12.204 274.742 13.621 273.858 14.921C272.974 16.221 271.973 17.274 270.855 18.08C273.949 22.188 275.86 24.645 276.588 25.451C278.07 26.985 279.682 27.856 281.424 28.064L281.385 29.273C279.929 29.247 278.746 29.039 277.836 28.649C276.926 28.233 276.016 27.544 275.106 26.582C274.222 25.62 272.259 23.033 269.217 18.821C267.111 18.821 265.044 18.756 263.016 18.626V29H261.222ZM268.242 17.339C269.256 17.339 270.348 16.663 271.518 15.311C272.688 13.959 273.273 12.386 273.273 10.592C273.273 8.798 272.662 7.433 271.44 6.497C270.218 5.561 268.632 5.093 266.682 5.093C265.642 5.093 264.42 5.145 263.016 5.249V17.144C264.888 17.274 266.63 17.339 268.242 17.339Z" fill="black"/>
</svg>
